<?xml version="1.0" ?><svg id="Layer_1" style="enable-background:new 0 0 100 100;" version="1.1" viewBox="0 0 100 100" xml:space="preserve" xmlns="http://www.w3.org/2000/svg" xmlns:xlink="http://www.w3.org/1999/xlink"><style type="text/css">
	.st0{opacity:0.15;fill:#004523;enable-background:new    ;}
	.st1{fill:#10E036;}
	.st2{fill:none;}
	.st3{fill:#03A61A;}
	.st4{fill:#B5FF8C;}
	.st5{fill:#28F737;}
	.st6{fill:#E1FFD1;}
	.st7{fill:#A9FCAF;}
	.st8{fill:#9ADBA3;}
	.st9{fill:#9FF3AF;}
	.st10{fill:#88F09B;}
	.st11{fill:#81D38D;}
	.st12{fill:#DAFFC6;}
	.st13{fill:#94FB9B;}
	.st14{fill:#42E950;}
	.st15{fill:#53F951;}
	.st16{fill:#39C13C;}
	.st17{fill:#FFFFFF;}
	.st18{fill:#F8FFF4;}
	.st19{fill:#EAFEEB;}
	.st20{fill:#E6F6E9;}
	.st21{fill:#E8FCEB;}
	.st22{fill:#02631D;}
	.st23{fill:#63F061;}
	.st24{fill:#9BE98C;}
	.st25{fill:#9FF893;}
</style><g><path class="st0" d="M67.68188,91.23574c0.04848,2.30035-8.76406,4.86552-16.52918,4.973   c-8.66013,0.11985-18.21413-2.78682-18.13663-5.18607c0.07859-2.43275,10.06242-4.43365,18.20351-4.24544   C58.40237,86.9433,67.63251,88.89395,67.68188,91.23574z"/><g><path class="st1" d="M96.98539,36.44272c-6.58581-7.15553-13.17166-14.31107-19.75698-21.4666L63.77343,8.30213h-26.9095    l-13.45497,6.67399c-6.58533,7.15553-13.17114,14.31107-19.75698,21.4666l46.66644,55.4407L96.98539,36.44272"/><g><polygon class="st2" points="14.87175,49.77203 16.03554,51.15464 21.07635,51.49256    "/><path class="st2" d="M82.13507,26.5785l10.24765,4.86326c-1.39281-1.51332-2.7856-3.02665-4.17841-4.53997l-5.91608-0.60833     C82.23718,26.38847,82.18613,26.48349,82.13507,26.5785z"/><path class="st2" d="M96.6989,36.13144c-0.69464-0.75471-1.38917-1.50943-2.08382-2.26414l-13.26003-1.18423     C86.46935,33.83269,91.58414,34.98203,96.6989,36.13144z"/><path class="st2" d="M75.83197,38.60184l3.02721-2.15334l-1.43803-1.09681c-0.57558,1.07131-1.15125,2.14256-1.72684,3.21388     C75.74022,38.57766,75.78606,38.58975,75.83197,38.60184z"/><path class="st2" d="M25.18088,59.77193l0.92842-6.88399l-0.72646-0.20121c-0.2014,2.25406-0.40307,4.50797-0.60459,6.76197     L25.18088,59.77193z"/><path class="st2" d="M27.74608,56.00775l0.49152,0.61235c-0.09439-0.31591-0.18874-0.63185-0.28313-0.94773L27.74608,56.00775z"/><path class="st2" d="M75.8941,15.62745c-0.57043,0.27845-1.14086,0.55687-1.71126,0.83532     c1.39717,0.62865,2.79385,1.25729,4.19106,1.88616L75.8941,15.62745z"/><path class="st2" d="M36.37967,65.85634c-1.31978,1.58775-2.63956,3.17548-3.95937,4.76344     c-0.83764-2.80359-1.67528-5.6072-2.51292-8.41082l-2.39963,2.57491l11.9748,14.22632     c-0.65236-3.63868-1.30452-7.27699-1.95687-10.91523C37.14365,67.34879,36.76168,66.60255,36.37967,65.85634z"/><path class="st2" d="M63.98468,22.04487l0.07734,0.0032c-0.08933-0.17144-0.17866-0.34282-0.26799-0.51426     C63.85758,21.70416,63.92113,21.87453,63.98468,22.04487z"/><polygon class="st2" points="77.19577,58.48883 78.18048,57.35616 76.57585,55.47701 76.57585,55.47704 78.18045,57.35619    "/><path class="st2" d="M64.07407,75.54163l0.35073-0.41667l-0.78297,0.01043C63.78593,75.27081,63.92999,75.4062,64.07407,75.54163     z"/><path class="st2" d="M84.52126,22.90004c-0.82734-0.89893-1.65468-1.79786-2.48203-2.69679     c-3.1708,0.73245-6.34175,1.46487-9.51271,2.19732L84.52126,22.90004z"/><path class="st2" d="M75.16712,38.42666c0.12773,0.03366,0.25549,0.06732,0.38322,0.10098     c-0.17816-1.67013-0.35616-3.34026-0.53429-5.0104l-9.43657-7.19757c0.66302,1.7772,1.32606,3.55441,1.98908,5.33161     C70.10159,33.90971,72.63461,36.16817,75.16712,38.42666z"/><path class="st2" d="M71.87666,51.21043l1.38942-0.70008l-0.67515-0.63822     C72.35283,50.31825,72.11476,50.76431,71.87666,51.21043z"/><polygon class="st2" points="64.88371,68.01791 65.8503,69.20605 65.8503,69.20602    "/><path class="st2" d="M65.25306,66.27791c-0.14199-0.6196-0.28407-1.23927-0.42603-1.85884     c-1.24244,2.32789-2.48485,4.6558-3.72729,6.98372L65.25306,66.27791z"/><path class="st2" d="M46.31835,84.01841c-0.05143-0.10048-0.10117-0.20036-0.15266-0.30083     c-0.07552-0.14736-0.15147-0.29327-0.22702-0.44054c-0.02531,0.07065-0.05062,0.14127-0.07592,0.21191     c-0.71006,0.19044-1.41969,0.38087-2.12938,0.57128l3.81637,4.53391c-0.67804-1.27901-1.35608-2.55807-2.03411-3.83712     C45.78321,84.51082,46.05076,84.26461,46.31835,84.01841z"/><path class="st2" d="M73.89837,47.78455l6.21829,8.69837l3.14514-3.73649l-0.7387-7.15493l0.08591-0.00226l-0.1884-1.98695     l8.65928-0.14381l5.86863-6.97194c-1.90022,0.90738-3.80013,1.81475-5.70042,2.72235     C85.46516,42.06745,79.68175,44.92598,73.89837,47.78455z"/><polygon class="st2" points="83.28454,52.71943 83.82015,52.08315 82.68688,46.41139    "/><path class="st2" d="M44.52507,80.53374c-0.87168-1.50039-1.74332-3.00081-2.61513-4.50122     c0.04986-0.08215,0.09972-0.16422,0.14959-0.24633c-0.00003,0,0,0,0-0.00003l-2.21748,3.65108l3.64298,4.32793l1.22075-2.88073     C44.64548,80.76764,44.58535,80.65049,44.52507,80.53374z"/><path class="st2" d="M32.56248,58.39991c0.0384-0.06562,0.07684-0.13125,0.11523-0.19687     c-1.02644-1.88393-2.05449-3.76186-3.08545-5.62899l-2.06272,1.67613c0.66014-0.5363,1.32028-1.07263,1.98042-1.60893     C30.52734,54.5609,31.54464,56.48028,32.56248,58.39991z"/><path class="st2" d="M59.19955,75.19453l-0.1244,0.00163c-0.41956,0.78609-0.83908,1.57223-1.25864,2.35831     C58.27745,76.76783,58.73848,75.98119,59.19955,75.19453z"/><path class="st3" d="M75.5776,38.78279l0.25437-0.18095c-0.04591-0.01209-0.09175-0.02418-0.13766-0.03627     C75.65541,38.63798,75.61651,38.71039,75.5776,38.78279z"/><path class="st3" d="M80.12021,39.73162l-6.31758,0.31374l1.77494-1.26257c-0.00907-0.08506-0.01814-0.17009-0.02722-0.25515     c-0.12773-0.03366-0.25549-0.06732-0.38322-0.10098c-2.53252-2.25849-5.06554-4.51695-7.59855-6.77538     c0.89868,2.40883,1.79736,4.8177,2.69604,7.22652c0.36212,0.97055,0.72425,1.94117,1.08635,2.9116     c-0.00003,0.00003-0.00006,0.00003-0.00009,0.00006c0.63242,1.69519,1.26479,3.39034,1.89724,5.0855l0.65025,0.90958     c5.78338-2.85856,11.56679-5.7171,17.34973-8.57566c1.90029-0.9076,3.8002-1.81498,5.70042-2.72235l0.03687-0.0438     c-0.09548-0.10378-0.191-0.20752-0.28649-0.31129c-5.11476-1.14941-10.22955-2.29875-15.34385-3.44837L80.12021,39.73162z"/><path class="st1" d="M28.2376,56.6201l-0.49152-0.61235l0.2084-0.33538c-0.14164-0.47407-0.28329-0.94814-0.42493-1.4222     l2.06272-1.67613c-0.87284-1.58073-1.74697-3.1566-2.62288-4.72532c-1.09179-0.52613-2.18357-1.05222-3.27536-1.57832     c-3.03227,1.05853-6.0645,2.117-9.0968,3.17551l0.27452,0.32611l6.2046,1.72053l4.33261,0.29038l-0.02612,0.9038l0.72646,0.20121     l-0.92842,6.88399l-0.40263-0.32322c-0.05636,0.6304-0.11275,1.26078-0.16909,1.89118     c-0.00188-0.00214-0.0038-0.00424-0.00568-0.00637l2.90428,3.45035l2.39963-2.57491     C29.3508,60.34598,28.79422,58.48302,28.2376,56.6201z"/><path class="st1" d="M61.09974,71.40279c-0.67487,1.26445-1.34973,2.52893-2.0246,3.79338l0.1244-0.00163     c0.53344-0.91017,1.06689-1.82031,1.60023-2.73048c0.94729,0.89046,1.89467,1.78091,2.84205,2.67133l0.78297-0.01043     l2.24474-2.66678c-0.47215-2.0601-0.94434-4.12019-1.41649-6.18027L61.09974,71.40279z M65.8503,69.20605l-1.17358,1.54736     l-1.05703-1.25548l1.26402-1.48003l0.96659,1.18812L65.8503,69.20605L65.8503,69.20605z"/><path class="st4" d="M29.73705,32.11913c0.89074,0.42377,1.78135,0.8475,2.67221,1.27133     c-0.55724,1.48092-1.1143,2.96184-1.67151,4.44276c0.83243-2.21246,1.66486-4.42495,2.49731-6.63741     C32.06905,31.50368,30.90303,31.81126,29.73705,32.11913z"/><path class="st4" d="M6.12697,33.75356c-0.18899,0.20535-0.37799,0.4107-0.56698,0.61605l0.44669,0.35569L6.12697,33.75356z"/><path class="st4" d="M27.6559,17.03097c-1.41567-0.68495-2.83131-1.36989-4.24695-2.05484     c-0.05237,0.05693-0.10481,0.11385-0.15718,0.17078l5.60211,7.40852L27.6559,17.03097z"/><path class="st4" d="M28.16338,44.67532c0.08911-0.23688,0.17825-0.47375,0.26736-0.71063     c-0.10776-0.02826-0.21559-0.05649-0.32338-0.08475C28.12601,44.14508,28.14475,44.41018,28.16338,44.67532z"/><path class="st4" d="M33.23826,31.18733c1.21547-3.23043,2.43081-6.46076,3.64631-9.69119     c-0.33886-0.16397-0.67775-0.3279-1.01661-0.49187c-0.20146,1.5369-0.40326,3.07381-0.60513,4.61068     C34.58815,27.4725,33.91294,29.33006,33.23826,31.18733z"/><path class="st4" d="M23.08692,28.95562c1.04095,1.29943,2.0814,2.59861,3.12235,3.89779     c-2.70634,0.88119-5.41274,1.76238-8.11912,2.64354c3.33486-0.16676,6.67023-0.33334,10.00512-0.49985     C26.4258,32.98324,24.75636,30.96945,23.08692,28.95562z"/><path class="st4" d="M25.50043,42.82129l-9.61979-5.27858l2.20951-2.04576l-7.70816,2.71218L8.42468,38.8979     c0.88772,0.34866,1.77595,0.69732,2.66367,1.04597c4.22261,2.10175,8.44466,4.20346,12.66675,6.30521     c-0.02035,0.0071-0.04073,0.01422-0.06107,0.02132c1.09179,0.5261,2.18357,1.05219,3.27536,1.57832     c-1.02236-1.04548-2.04473-2.09098-3.06709-3.13667C24.43495,44.08181,24.96768,43.45153,25.50043,42.82129z"/><path class="st1" d="M7.31189,35.7645l12.96265-12.57509l8.65969,3.68003l2.5019-2.36023     c-0.92898-2.33231-1.85743-4.66484-2.78641-6.99741c-0.33126-0.16029-0.66256-0.32055-0.99382-0.48085l1.19798,5.52446     l-5.60211-7.40852C17.54371,21.3491,11.8354,27.55135,6.12697,33.75356l-0.12029,0.97175L7.31189,35.7645z"/><path class="st5" d="M18.09015,35.49695c2.70637-0.88116,5.41278-1.76235,8.11912-2.64354     c-1.04095-1.29918-2.0814-2.59836-3.12235-3.89779l5.77952,2.74929c0.29025,0.1381,0.58042,0.27616,0.87061,0.41422     c1.16598-0.30787,2.332-0.61546,3.49801-0.92333c0.00107-0.00283,0.00214-0.00565,0.0032-0.00848     c0.67468-1.85727,1.34989-3.71482,2.02457-5.57238c0.20187-1.53687,0.40367-3.07378,0.60513-4.61068     c-2.4061-1.16416-4.81214-2.32832-7.21824-3.49245c0.92898,2.33256,1.85743,4.66509,2.78641,6.99741l-2.5019,2.36023     l-8.65969-3.68003L7.31189,35.7645L6.9366,36.12848l1.48808,2.76942l1.95731-0.68877L18.09015,35.49695z"/><path class="st4" d="M50.70575,8.30214h-4.02417c0.03852,1.79111,0.07708,3.58226,0.11561,5.37331     C48.10035,11.88433,49.40305,10.09325,50.70575,8.30214z"/><path class="st4" d="M61.36017,21.53033c-1.31381-0.00182-2.62778-0.00358-3.94146-0.00559     c-0.00006,0.00006-0.0001,0.0001-0.00016,0.00016c1.31384,0.00185,2.62775,0.00364,3.94156,0.0055L61.36017,21.53033z"/><path class="st4" d="M62.75647,21.04766L62.849,21.5325c0.315,0.00044,0.63003,0.00088,0.94503,0.00132     c3.44036-1.70059,6.88073-3.40096,10.32109-5.10155c0.02258,0.01017,0.04516,0.02032,0.06773,0.03049     c0.5704-0.27845,1.14083-0.55687,1.71126-0.83532l-2.18341-2.39621l-0.84062-0.41695l-9.78244,7.79429     C62.97723,20.75493,62.86687,20.90131,62.75647,21.04766z"/><path class="st4" d="M28.64972,17.51181c2.4061,1.16413,4.81214,2.32829,7.21824,3.49245     c0.33886,0.16397,0.67775,0.3279,1.01661,0.49187c2.07186,0.00289,4.14352,0.00581,6.21534,0.0087     c0.00006-0.00006,0.00013-0.00009,0.00019-0.00016c3.7438,0.00528,7.48811,0.01055,11.23195,0.01583     c-2.51147-2.61494-5.02342-5.23016-7.53487-7.84506c-3.43232-1.73111-6.8643-3.46206-10.29654-5.19311L34.2462,9.60059     l2.62279,3.84425c-3.08169,1.14721-6.16281,2.29441-9.2445,3.44184c-1.366-0.65618-2.73218-1.31237-4.09853-1.96861     l-0.11703,0.05806c1.41564,0.68495,2.83128,1.36989,4.24695,2.05484C27.98716,17.19126,28.31846,17.35152,28.64972,17.51181z"/><path class="st4" d="M53.00571,30.54543l8.35439-9.01503c-1.31381-0.00185-2.62772-0.00364-3.94156-0.0055     c-2.75354,2.7513-5.50707,5.50233-8.2606,8.25338l1.13034,1.35821l1.95329-2.207L53.00571,30.54543z"/><path class="st4" d="M46.78714,47.82788c0.00462,0.01624,0.0092,0.03247,0.01382,0.0487     c0.96719,0.00135,1.93439,0.00273,2.90155,0.00408v-0.00003c-1.42157-0.08588-2.84299-0.17194-4.26444-0.25791     c0.04151,0.0703,0.08299,0.14054,0.1245,0.21085C45.97073,47.83168,46.37898,47.82973,46.78714,47.82788z"/><path class="st4" d="M69.70815,37.38647c0.18551,0.49715,0.37099,0.9942,0.55647,1.49134     c-0.89868-2.40883-1.79736-4.81769-2.69604-7.22652c-0.66302-1.7772-1.32606-3.55441-1.98908-5.33161l-3.13739-2.39301     c1.2836,1.43558,2.56771,2.87116,3.85131,4.30673C67.43183,31.28441,68.57024,34.33546,69.70815,37.38647z"/><path class="st4" d="M62.849,21.5325l0.08946,0.46879l1.04623,0.04358c-0.06355-0.17034-0.12711-0.34071-0.19066-0.51105     C63.47903,21.53338,63.164,21.53294,62.849,21.5325z"/><path class="st4" d="M70.19862,42.60918l3.0495,4.26579c-0.63245-1.69516-1.26482-3.39031-1.89724-5.0855     C70.96677,42.06268,70.58272,42.33595,70.19862,42.60918z"/><path class="st4" d="M36.88457,21.49614c-1.2155,3.23043-2.43084,6.46076-3.64631,9.69119     c-0.00107,0.00282-0.00214,0.00565-0.0032,0.00848c-0.83246,2.21246-1.66489,4.42495-2.49731,6.63741     c-0.769,2.04385-1.53813,4.08766-2.30691,6.1315c-0.00003,0-0.00006-0.00003-0.00009-0.00003     c-0.08911,0.23688-0.17825,0.47375-0.26736,0.71063c0.01344,0.1911,0.02697,0.38219,0.04038,0.57329     c-0.41142,0.86687-0.82291,1.73349-1.23437,2.60012c3.92275,0.00552,7.8455,0.01102,11.76825,0.01654     c1.70988-0.00804,3.41942-0.01592,5.12902-0.02383c-2.65642-0.05149-5.31283-0.10308-7.96881-0.15477     c0.17835-5.10503,0.35669-10.21003,0.53508-15.31506c1.09225,1.8498,2.18445,3.69956,3.27665,5.54936     c-0.94248-3.53814-1.88493-7.07631-2.82754-10.61445c2.07232-1.93389,4.14512-3.8678,6.21788-5.80169     C41.02809,21.50195,38.95643,21.49903,36.88457,21.49614z"/><path class="st4" d="M44.70577,80.88445l0.00973-0.02296c-0.06346-0.10924-0.12698-0.21848-0.19043-0.32774     C44.58535,80.65049,44.64548,80.76764,44.70577,80.88445z"/><path class="st4" d="M42.05953,75.78616c0,0.00003-0.00003,0.00003,0,0.00003c0.38778-0.63876,0.77591-1.27717,1.16363-1.91599     L42.05953,75.78616z"/><path class="st4" d="M42.28322,65.97192c0.0477,0.06594,0.09875,0.13335,0.14714,0.19961     c-0.03652-0.0661-0.073-0.13216-0.10952-0.19826C42.30831,65.97283,42.29575,65.97236,42.28322,65.97192z"/><path class="st4" d="M72.59081,49.87197c-0.2382,0.44622-0.47633,0.89237-0.7144,1.33858l0.00025-0.00013     c0.23811-0.44612,0.47617-0.89218,0.71427-1.3383L72.59081,49.87197z"/><path class="st4" d="M46.84592,63.14394c-0.13562-4.77543-0.27179-9.55067-0.40744-14.32585     c-2.79652,6.16152-5.59301,12.32333-8.38953,18.48485c1.3233-0.6256,2.64637-1.25114,3.96957-1.87674     c-0.00003-0.00003-0.00003-0.00009-0.00006-0.00012C43.62761,64.66546,45.2368,63.90456,46.84592,63.14394z"/><path class="st4" d="M38.72781,47.86531c0.00327,0,0.00656-0.00003,0.00983-0.00003     c-3.92275-0.00552-7.8455-0.01102-11.76825-0.01654c0.87592,1.56871,1.75004,3.14458,2.62288,4.72532     c1.03097,1.86713,2.05901,3.74506,3.08545,5.62899C34.6946,54.75696,36.71093,51.3111,38.72781,47.86531z"/><path class="st4" d="M49.31667,73.85014c-1.12614,3.1421-2.25233,6.2848-3.378,9.4269     c0.07555,0.14726,0.1515,0.29317,0.22702,0.44054c0.05149,0.10048,0.10123,0.20036,0.15266,0.30083     c2.83715-2.61038,5.67439-5.2208,8.51154-7.83169c-1.83837-0.79892-3.67702-1.5981-5.51548-2.39712     C49.31516,73.80979,49.31592,73.82996,49.31667,73.85014z"/><path class="st4" d="M46.80096,47.87658c2.67664,9.43673,5.3528,18.87345,8.02893,28.31014     c0.92842,0.57075,1.85633,1.14146,2.78474,1.71218c0.06729-0.1148,0.13458-0.22963,0.20187-0.34442     c0.41956-0.78609,0.83908-1.57223,1.25864-2.35831c0.67487-1.26445,1.34973-2.52893,2.0246-3.79338     c1.24244-2.32792,2.48485-4.65583,3.72729-6.98372c-0.00003-0.00009-0.00003-0.00019-0.00006-0.00028     c-1.52478,2.67623-3.04954,5.35242-4.57429,8.02919c-3.5167-8.1892-7.03345-16.37812-10.55018-24.56731     C48.73534,47.87931,47.76815,47.87793,46.80096,47.87658z"/><path class="st5" d="M46.79719,13.67544c2.51144,2.61491,5.02339,5.23013,7.53487,7.84506     c-3.74384-0.00528-7.48814-0.01055-11.23195-0.01583c-0.00006,0.00006-0.00013,0.00009-0.00019,0.00016     c-2.07277,1.93389-4.14556,3.8678-6.21788,5.80169c0.94261,3.53814,1.88506,7.07631,2.82754,10.61445     c1.90946,3.23394,3.81894,6.46795,5.7285,9.70174c1.42145,0.08597,2.84286,0.17204,4.26444,0.25791v0.00003     c3.51672,8.1892,7.03348,16.37811,10.55018,24.56731c1.52475-2.67677,3.0495-5.35296,4.57429-8.02919     c0.00003,0.00009,0.00003,0.00019,0.00006,0.00028c0.14195,0.61958,0.28403,1.23924,0.42603,1.85884     c0.47215,2.06008,0.94434,4.12016,1.41649,6.18027l8.88491-10.55532L74.31761,60.731     c-2.44215-0.12183-4.88474-0.24366-7.32738-0.36549c0.77638-1.45436,1.55248-2.90865,2.32874-4.36288     c-2.7947-2.61063-5.58937-5.22124-8.38454-7.83187c-1.28612-0.09319-2.57273-0.18639-3.85885-0.27958     c-3.00127-4.00756-6.00205-8.01512-9.00282-12.02268c0.8827-0.95278,1.7659-1.90556,2.6486-2.85835l-0.93545-1.30596     l0.50239-0.5677l-1.13034-1.35821c2.75353-2.75105,5.50706-5.50208,8.2606-8.25338     c0.00006-0.00006,0.0001-0.0001,0.00016-0.00016c1.31369,0.00201,2.62766,0.00377,3.94146,0.00559l5.54365-5.98201     c1.20498-1.30003,2.40993-2.60012,3.61494-3.90033l-6.74533-3.34585h-13.0677     C49.40305,10.09325,48.10035,11.88433,46.79719,13.67544z M58.22755,50.24211l2.49336,1.66668     c-1.4725,3.59406-2.94447,7.18844-4.4165,10.7825c-0.00754-3.54081-0.01457-7.0819-0.0216-10.62274L58.22755,50.24211z"/><path class="st5" d="M62.72746,20.89553l0.02901,0.15213c0.1104-0.14635,0.22077-0.29274,0.33117-0.43909L62.72746,20.89553z"/><polygon class="st3" points="50.31844,91.88341 50.37668,91.81421 50.29868,91.85992    "/><path class="st3" d="M60.79979,72.46405c-0.53335,0.91017-1.06679,1.82031-1.60023,2.73048     c-0.46107,0.78665-0.9221,1.5733-1.38305,2.35995c-0.06729,0.11479-0.13457,0.22962-0.20187,0.34442     c-0.92841-0.57072-1.85633-1.14143-2.78474-1.71218c-2.83715,2.61089-5.67439,5.22131-8.51154,7.83169     c-0.26759,0.2462-0.53514,0.49241-0.80272,0.73861c0.67804,1.27905,1.35607,2.55811,2.03411,3.83712l1.46142,1.7362     l3.3039-0.81892l11.75902-13.96979c-0.14409-0.13543-0.28815-0.27082-0.43224-0.40624     C62.69445,74.24496,61.74707,73.35451,60.79979,72.46405z"/><path class="st3" d="M46.80096,47.87658c-0.00462-0.01624-0.0092-0.03247-0.01382-0.0487     c-0.40816,0.00185-0.81641,0.0038-1.22458,0.00568c0.00813,0.01375,0.01624,0.02754,0.02437,0.04129     c-0.57345-0.01112-1.14683-0.02229-1.72028-0.03341c-1.7096,0.00791-3.41914,0.01579-5.12902,0.02383     c-0.00327,0-0.00656,0.00003-0.00983,0.00003c-2.01688,3.44579-4.03321,6.89165-6.05009,10.33773     c-0.0384,0.06562-0.07683,0.13125-0.11523,0.19687c1.30019,2.45216,2.59983,4.90458,3.90005,7.35674     c-0.02763,0.03323-0.05523,0.06647-0.08286,0.09969c0.382,0.74621,0.76398,1.49245,1.14601,2.23862     c-0.03002-0.16736-0.06001-0.33472-0.09002-0.50208c0.20444-0.09664,0.40885-0.19329,0.61329-0.28994     c2.79652-6.16152,5.59301-12.32333,8.38953-18.48485c0.13565,4.77518,0.27182,9.55042,0.40744,14.32585     c0.73801,1.25676,1.47552,2.51348,2.21305,3.77021c0.08512,2.29181,0.17031,4.58361,0.25544,6.87545     c1.83846,0.79902,3.67711,1.5982,5.51548,2.39712C52.15376,66.75003,49.47759,57.3133,46.80096,47.87658z"/><path class="st3" d="M46.68158,8.30214h-9.81763l-0.36329,0.1802c3.43223,1.73105,6.86421,3.462,10.29654,5.19311     C46.75866,11.88439,46.7201,10.09325,46.68158,8.30214z"/><path class="st3" d="M74.18285,16.46276c-0.02258-0.01017-0.04516-0.02032-0.06773-0.03049     c-3.44036,1.70059-6.88072,3.40096-10.32109,5.10155c0.08933,0.17144,0.17867,0.34282,0.26799,0.51426l8.46451,0.35249     c3.17096-0.73245,6.34191-1.46487,9.51271-2.19732c-0.85849-0.93281-1.71704-1.86562-2.57556-2.79844l-1.08978,0.94411     C76.97669,17.72005,75.58002,17.09141,74.18285,16.46276z"/><polygon class="st5" points="82.68688,46.41139 83.82015,52.08315 89.43828,45.40874 82.60902,45.58923    "/><polygon class="st1" points="82.60902,45.58923 89.43828,45.40874 91.0799,43.45847 82.42062,43.60228    "/><polygon class="st1" points="82.60902,45.58923 82.5231,45.59149 83.2618,52.74643 83.28454,52.71943 82.68688,46.41139    "/><polygon class="st1" points="49.01115,90.33034 50.29868,91.85992 50.37668,91.81421 52.31506,89.51141    "/><path class="st1" d="M45.93867,83.27704c1.12567-3.1421,2.25187-6.2848,3.378-9.4269     c-0.68978,0.34615-1.37953,0.69229-2.06984,1.0379c-0.41397,2.73103-0.82791,5.46151-1.24241,8.19196     c-0.42967-0.73949-0.85928-1.479-1.28891-2.21852l-0.00973,0.02296l-1.22075,2.88073l0.24834,0.29506     c0.70969-0.19041,1.41932-0.38084,2.12938-0.57128C45.88805,83.4183,45.91336,83.34769,45.93867,83.27704z"/><path class="st1" d="M43.22316,73.87021l4.02367,1.01784c-1.60548-2.90547-3.21099-5.81101-4.81647-8.71651     c-0.04839-0.06625-0.09944-0.13367-0.14714-0.19961c0.01253,0.00043,0.02509,0.00091,0.03762,0.00135     c-0.10076-0.18237-0.20155-0.36471-0.30231-0.54707c-1.3232,0.6256-2.64627,1.25114-3.96957,1.87674     c-0.20444,0.09665-0.40885,0.1933-0.61329,0.28994c0.03002,0.16736,0.06001,0.33472,0.09002,0.50208     c0.65235,3.63824,1.30452,7.27655,1.95687,10.91523l0.35949,0.42706l2.21748-3.65108L43.22316,73.87021z"/><path class="st5" d="M36.869,13.44485L34.24621,9.6006l-10.72024,5.31748c1.36634,0.65625,2.73253,1.31243,4.09853,1.96861     C30.70619,15.73926,33.78731,14.59205,36.869,13.44485z"/><path class="st5" d="M23.7551,46.24909c-4.22208-2.10175-8.44413-4.20346-12.66675-6.30521     c-0.88772-0.34866-1.77595-0.69732-2.66367-1.04597L6.9366,36.12848l0.37529-0.36398l-1.30521-1.03919L5.56,34.36962     c-0.63602,0.69104-1.27199,1.38207-1.90801,2.07311l10.94524,13.00319c3.0323-1.0585,6.06453-2.11697,9.0968-3.17551     C23.71437,46.26331,23.73475,46.25618,23.7551,46.24909z"/><path class="st5" d="M42.05953,75.78619c-0.04986,0.08211-0.09972,0.16418-0.14959,0.24633     c0.8718,1.50041,1.74345,3.00083,2.61513,4.50122c0.06346,0.10927,0.12698,0.21851,0.19043,0.32774     c0.42964,0.73952,0.85925,1.47903,1.28891,2.21852c0.4145-2.73045,0.82844-5.46094,1.24241-8.19196l-4.02367-1.01784     C42.83544,74.50903,42.44731,75.14744,42.05953,75.78619z"/><path class="st3" d="M24.77824,59.44871c0.20152-2.254,0.4032-4.50791,0.60459-6.76197l0.02612-0.9038l-4.33261-0.29038     l-5.04082-0.33792l8.56794,10.17888c0.00188,0.00213,0.0038,0.00424,0.00568,0.00637     C24.66549,60.70949,24.72188,60.07911,24.77824,59.44871z"/><path class="st5" d="M29.73705,32.11913c-0.29019-0.13806-0.58035-0.27612-0.87061-0.41422l-5.77952-2.74929     c1.66944,2.01383,3.33888,4.02762,5.00835,6.04148c-3.33489,0.16651-6.67026,0.33308-10.00512,0.49985l-2.20951,2.04576     l9.61979,5.27858c0.77924-0.92189,1.55851-1.84374,2.33759-2.76563c0.0899,1.27475,0.17964,2.54953,0.26934,3.82428     c0.10779,0.02826,0.21562,0.05649,0.32338,0.08475c0.00003,0,0.00006,0.00003,0.00009,0.00003     c0.76878-2.04385,1.53791-4.08766,2.30691-6.1315c0.55721-1.48092,1.11427-2.96184,1.67151-4.44276     C31.51839,32.96663,30.62778,32.5429,29.73705,32.11913z"/><path class="st3" d="M35.89785,47.68668c2.65598,0.05168,5.31239,0.10327,7.96881,0.15477     c0.57344,0.01112,1.14683,0.02229,1.72028,0.03341c-0.00813-0.01375-0.01624-0.02754-0.02437-0.04129     c-0.04151-0.0703-0.08299-0.14054-0.1245-0.21085c-1.90955-3.23379-3.81904-6.46779-5.7285-9.70174     c-1.09219-1.8498-2.18439-3.69957-3.27665-5.54936C36.25454,37.47665,36.0762,42.58165,35.89785,47.68668z"/><path class="st5" d="M32.56248,58.39991c-1.01784-1.91963-2.03515-3.83901-3.05252-5.75867     c-0.66014,0.5363-1.32028,1.07263-1.98042,1.60893c0.14164,0.47407,0.28328,0.94814,0.42493,1.4222     c0.09439,0.31588,0.18874,0.63182,0.28313,0.94773c0.55662,1.86292,1.1132,3.72588,1.66979,5.58886     c0.83764,2.80362,1.67528,5.60723,2.51292,8.41082c1.31981-1.58796,2.63959-3.1757,3.95937-4.76344     c0.02763-0.03322,0.05523-0.06647,0.08286-0.09969C35.16232,63.30449,33.86267,60.85207,32.56248,58.39991z"/><path class="st5" d="M28.16338,44.67532c-0.01862-0.26514-0.03737-0.53024-0.05602-0.79538     c-0.08971-1.27475-0.17945-2.54953-0.26934-3.82428c-0.77908,0.92189-1.55835,1.84374-2.33759,2.76563     c-0.53275,0.63025-1.06548,1.26052-1.59813,1.89077c1.02236,1.04569,2.04473,2.09119,3.06709,3.13667     c0.41146-0.86662,0.82295-1.73325,1.23437-2.60012C28.19035,45.05751,28.17681,44.86642,28.16338,44.67532z"/><polygon class="st3" points="63.6197,69.49794 64.67673,70.75342 65.8503,69.20605 65.8503,69.20605 64.88371,68.01791    "/><path class="st5" d="M71.35088,41.78947c0.00003-0.00003,0.00006-0.00003,0.00009-0.00006     c-0.3621-0.97042-0.72423-1.94104-1.08635-2.9116c-0.18548-0.49714-0.37096-0.99419-0.55647-1.49134     c-1.13791-3.05101-2.27632-6.10205-3.41474-9.15306c-1.2836-1.43558-2.56771-2.87116-3.85131-4.30673l-6.51549,3.8408     l7.07364,19.96244l7.19827-5.12086l0.0001,0.00013C70.58272,42.33595,70.96677,42.06268,71.35088,41.78947z"/><path class="st3" d="M73.99856,56.41092l-0.80331-2.54156c-1.11581,0.87589-2.23112,1.75183-3.34692,2.62775     c-0.17643-0.16481-0.3529-0.32966-0.52936-0.49448c-0.77625,1.45423-1.55235,2.90852-2.32874,4.36288     c2.44265,0.12183,4.88524,0.24366,7.32738,0.36549l1.35896,0.19263L73.99856,56.41092z"/><path class="st5" d="M71.51475,48.85476c-1.58956,0.72269-3.17963,1.44537-4.76968,2.16806l2.68527,1.42025l2.44607-1.23252     c0.23807-0.44622,0.4762-0.89237,0.7144-1.33858L71.51475,48.85476z"/><polygon class="st3" points="53.44882,31.48138 53.00571,30.54543 52.24158,28.92949 50.28829,31.13649 49.7859,31.70419      50.72135,33.01015 51.89443,34.64769    "/><path class="st3" d="M82.01886,26.26573c-0.06493,0.05507-0.12984,0.11012-0.19473,0.16519l0.31094,0.14758     c0.05106-0.09501,0.10211-0.19003,0.15317-0.28504L82.01886,26.26573z"/><path class="st3" d="M82.01886,26.26573c0.17411-0.14767,0.34822-0.29537,0.52233-0.44305     c-2.00903-0.1894-4.01862-0.37902-6.02767-0.56842l-2.1939,1.73195c0.66818,1.36977,1.33683,2.73981,2.005,4.10955     c1.83334-1.55483,3.66631-3.10988,5.4995-4.66484l-0.49821-0.23644L82.01886,26.26573z"/><path class="st3" d="M75.57757,38.78279h0.00003c0.03891-0.07241,0.07781-0.14481,0.11671-0.21722     c0.57558-1.07132,1.15126-2.14257,1.72684-3.21388l-2.40509-1.83445c0.17812,1.67013,0.35612,3.34026,0.53429,5.0104     C75.55943,38.61271,75.5685,38.69773,75.57757,38.78279z"/><path class="st1" d="M56.30441,62.69129c1.47203-3.59406,2.944-7.18844,4.4165-10.7825l-2.49336-1.66668l-1.94475,1.82644     C56.28984,55.60939,56.29687,59.15048,56.30441,62.69129z"/><polygon class="st5" points="78.18045,57.35619 76.57585,55.47704 75.48262,56.84275 77.19577,58.48883    "/><path class="st5" d="M49.05898,66.91415c-0.73754-1.25673-1.47504-2.51345-2.21305-3.77021     c-1.60912,0.76062-3.21831,1.52152-4.82746,2.28214c0.00003,0.00003,0.00003,0.00009,0.00006,0.00012     c0.10076,0.18237,0.20155,0.36471,0.30231,0.54707c0.03652,0.06609,0.073,0.13216,0.10952,0.19826     c1.60548,2.9055,3.21099,5.81104,4.81647,8.71651c0.69032-0.34561,1.38006-0.69176,2.06984-1.0379     c-0.00075-0.02019-0.00151-0.04035-0.00226-0.06054C49.22929,71.49776,49.1441,69.20596,49.05898,66.91415z"/><path class="st1" d="M78.3739,18.34892l1.08978-0.94411c-0.74504-0.80957-1.49021-1.61914-2.23525-2.42868l-3.51773-1.74489     l2.18341,2.39621L78.3739,18.34892z"/><path class="st1" d="M61.36017,21.53033l-0.00006,0.00006l-8.35439,9.01503l0.44311,0.93595l-1.55439,3.16631l-1.17308-1.63754     c-0.8827,0.95278-1.7659,1.90556-2.6486,2.85835c3.00077,4.00756,6.00154,8.01512,9.00282,12.02268     c1.28612,0.09319,2.57273,0.18639,3.85885,0.27958c2.79517,2.61064,5.58984,5.22124,8.38454,7.83187     c0.17646,0.16481,0.35293,0.32966,0.52936,0.49448c1.11581-0.87592,2.23111-1.75186,3.34692-2.62775l0.80331,2.54156     l1.67802,4.51271L74.31761,60.731l1.23685,1.17186l4.5622-5.41993l-6.21829-8.69837l-0.65025-0.90958l-3.0495-4.26579     l-0.0001-0.00013l-7.19827,5.12086l-7.07364-19.96244l6.51549-3.8408l3.13739,2.39301l9.43657,7.19757l2.40509,1.83445     l1.43803,1.09681l-3.02721,2.15334l-0.25437,0.18095h-0.00003l-1.77494,1.26257l6.31758-0.31374l1.23484-7.04856     l13.26003,1.18423c-0.74413-0.8085-1.4882-1.61703-2.23236-2.42554L82.13507,26.5785l-0.31094-0.14758     c-1.83319,1.55496-3.66616,3.11001-5.4995,4.66484c-0.66817-1.36973-1.33682-2.73978-2.005-4.10955l2.1939-1.73195     c2.00906,0.1894,4.01865,0.37902,6.02767,0.56842c-0.17411,0.14767-0.34822,0.29537-0.52233,0.44305l0.26938,0.02773     l5.91608,0.60833c-1.22771-1.33391-2.45537-2.66784-3.68305-4.00175l-11.99474-0.49947l-8.46451-0.35249l-0.07734-0.0032     l-1.04623-0.04358L62.849,21.5325l-0.09253-0.48484l-0.02901-0.15213l0.36018-0.28696l9.78244-7.79429l-2.35131-1.1663     c-1.20501,1.30021-2.40997,2.6003-3.61494,3.90033L61.36017,21.53033z M76.57585,55.47704v-0.00003l1.60463,1.87915     l-0.98471,1.13267l-1.71315-1.64608L76.57585,55.47704z M71.87666,51.21043l-0.00025,0.00013l-2.44607,1.23252l-2.68527-1.42025     c1.59006-0.72269,3.18012-1.44537,4.76968-2.16806l1.07606,1.01721l0.00012,0.00016l0.67515,0.63822L71.87666,51.21043z"/><path class="st1" d="M81.32591,26.19449l0.49821,0.23644c0.0649-0.05507,0.1298-0.11012,0.19473-0.16519L81.32591,26.19449z"/></g><path class="st6" d="M45.4381,47.62281c0.04134,0.07002,0.08307,0.14068,0.12442,0.2107    c0.40825-0.00188,0.81638-0.00375,1.22463-0.00562c0.00459,0.01616,0.00923,0.03255,0.01382,0.0487    c0.96652,0.00135,1.93503,0.00272,2.90155,0.00407c-0.00002-0.00004-0.00002-0.00004-0.00002-0.00004    C48.28089,47.79475,46.85956,47.7088,45.4381,47.62281 M71.13387,41.94383c-0.31178,0.22178-0.62354,0.44355-0.93531,0.66533    l2.47533,3.46257L71.13387,41.94383 M49.39705,34.43932c-0.44147,0.47639-0.88295,0.95279-1.32431,1.42918L49.39705,34.43932     M62.44209,23.92669l-6.51549,3.8408L62.44209,23.92669c1.12662,1.25999,2.2536,2.51997,3.38028,3.77995l-0.62664-1.67966    L62.44209,23.92669 M62.89809,21.78981l0.04036,0.21148l0.76734,0.03196l-0.09045-0.24244L62.89809,21.78981 M57.16146,21.78177    c-2.66788,2.66569-5.33565,5.33104-8.00353,7.99652l1.13034,1.3582l1.95329-2.20699l0.76415,1.61595l0.4431,0.93593    l-0.4431-0.93593l8.11632-8.75813L57.16146,21.78177 M37.0625,21.75362L27.24409,47.8491    c3.83096,0.00539,7.66063,0.01077,11.49158,0.01616c1.70794-0.00799,3.4159-0.01597,5.12357-0.02389    c-2.65402-0.05146-5.30779-0.10307-7.96138-0.15468c0.17832-5.10503,0.35669-10.21003,0.53505-15.31507    c1.09234,1.84993,2.18442,3.69951,3.27668,5.54943c-0.94244-3.53806-1.88498-7.07647-2.82756-10.61453    c1.98055-1.84825,3.96162-3.69658,5.94262-5.54483L37.0625,21.75362"/><path class="st7" d="M42.82465,21.76169c-1.981,1.84825-3.96208,3.69658-5.94262,5.54483    c0.94258,3.53806,1.88512,7.07648,2.82756,10.61453c1.90947,3.23397,3.81889,6.46791,5.7285,9.70175    c1.42146,0.08599,2.84279,0.17194,4.2644,0.25782l0,0c2.4581,0.00349,4.91488,0.00695,7.37295,0.0104    c-3.00116-4.0074-6.00191-8.01497-9.00271-12.02253l0,0l0,0c0.44136-0.47639,0.88283-0.95279,1.32431-1.42918l1.3243-1.42918    l-0.93545-1.30594l0.50238-0.56772l-1.13034-1.3582c2.66788-2.66547,5.33565-5.33083,8.00353-7.99652L42.82465,21.76169"/><path class="st8" d="M46.78715,47.82789c-0.40825,0.00187-0.81638,0.00374-1.22463,0.00562    c0.00819,0.01388,0.01622,0.02747,0.02441,0.04134c-0.57584-0.01115-1.15187-0.02231-1.7277-0.03348    c-1.70767,0.00792-3.41563,0.0159-5.12357,0.02389c2.6888,0.00378,5.37651,0.00755,8.0653,0.01133    C46.79638,47.86044,46.79173,47.84405,46.78715,47.82789"/><path class="st8" d="M36.43291,32.37162c-0.17837,5.10504-0.35673,10.21003-0.53505,15.31507    c2.65359,0.05162,5.30736,0.10323,7.96138,0.15468c0.57582,0.01117,1.15186,0.02233,1.7277,0.03348    c-0.0082-0.01388-0.01622-0.02747-0.02441-0.04134c-0.04136-0.07002-0.08308-0.14068-0.12442-0.2107    c-1.90961-3.23383-3.81903-6.46777-5.7285-9.70175C38.61733,36.07114,37.52525,34.22155,36.43291,32.37162"/><path class="st7" d="M62.44209,23.92669l-6.51549,3.8408l7.07366,19.96243l7.19824-5.12085    c0.31183-0.22168,0.62359-0.44346,0.93537-0.66524l-5.3115-14.23719C64.69569,26.44665,63.56871,25.18667,62.44209,23.92669"/><polyline class="st8" points="52.24157,28.9295 50.28828,31.13649 49.78589,31.70421 50.72134,33.01015 51.89443,34.64769     53.44881,31.48137 53.00571,30.54545 52.24157,28.9295   "/><path class="st9" d="M61.12204,21.78732l-8.11632,8.75813l0.4431,0.93593l-1.55438,3.16632l-1.17309-1.63754l-1.3243,1.42918    l-1.32431,1.42918l0,0c3.0008,4.00756,6.00155,8.01513,9.00283,12.02269c5.42873,0.00747,10.85674,0.0151,16.28559,0.02273    l-0.68726-1.84219l-2.47539-3.46266l-7.19824,5.12085L55.9266,27.76748l6.51549-3.8408l2.75364,2.10029l-1.48994-3.99373    l-0.76734-0.03196l-0.04036-0.21148L61.12204,21.78732"/><path class="st10" d="M81.35505,32.68308l-0.72588,4.14325c-0.00006-0.00002-0.00006-0.00002-0.00006-0.00002L81.35505,32.68308    c4.82057,1.0836,9.64137,2.16692,14.46238,3.2503c-0.65441-0.71101-1.30979-1.42309-1.96419-2.1341L81.35505,32.68308     M82.28822,26.29344c-0.05101,0.09492-0.10217,0.19012-0.15318,0.28504l9.00608,4.27407    c-1.23644-1.34341-2.47284-2.68678-3.70927-4.03019L82.28822,26.29344 M81.46256,20.3365    c-2.97873,0.68807-5.95702,1.37601-8.93589,2.06408l11.26739,0.46921C83.01669,22.02513,82.23993,21.18115,81.46256,20.3365     M76.02762,15.774l-1.60853,0.79506c1.3184,0.59323,2.63632,1.18643,3.9548,1.77987l0.70074-0.60709l0,0l-0.70074,0.60709    L76.02762,15.774"/><path class="st11" d="M81.35505,32.68308l-0.72588,4.14325c2.89518,1.04796,5.78998,2.09571,8.68525,3.1437    c2.19145-1.00771,4.38255-2.0152,6.57392-3.02285l0.41185-0.48927c-0.1612-0.17513-0.32158-0.34938-0.48277-0.52452    C90.99642,34.85,86.17562,33.76668,81.35505,32.68308"/><path class="st11" d="M74.41909,16.56906L64.11621,21.6615l0.01575,0.04219c0.25117,0.12626,0.50213,0.25241,0.7533,0.37867    l1.50748,0.06277c-0.03397-0.0205-0.06786-0.04095-0.10183-0.06145c2.06129,0.08565,4.1226,0.17154,6.18441,0.25747    c0.0078,0.01941,0.0156,0.03883,0.02341,0.05825l0.02795,0.00116c2.97887-0.68806,5.95716-1.37601,8.93589-2.06408    c-0.79587-0.86474-1.5921-1.72991-2.38794-2.59465l-0.70074,0.60709C77.05541,17.75549,75.73749,17.16228,74.41909,16.56906"/><path class="st11" d="M82.01884,26.26574c-0.06488,0.05503-0.12985,0.11014-0.19473,0.16517l0.31093,0.14757    c0.05101-0.09492,0.10217-0.19012,0.15318-0.28504L82.01884,26.26574 M76.5135,25.25426l-2.06921,1.63354    c1.43182,0.71984,2.86349,1.43962,4.2953,2.15949l0,0c1.02811-0.87202,2.05636-1.7443,3.08452-2.61638l-0.4982-0.23643    l0.69293,0.07126c0.17416-0.14772,0.34818-0.29531,0.52235-0.44303C80.53215,25.6333,78.52258,25.44366,76.5135,25.25426"/><path class="st10" d="M81.82411,26.43091c-1.02816,0.87208-2.05641,1.74436-3.08449,2.61646    c0.62998,2.59277,1.25948,5.18583,1.88949,7.77892l0,0l0.72594-4.14322l12.49819,1.1162    c-0.90403-0.98223-1.8081-1.9645-2.71212-2.94673l-9.00608-4.27407L81.82411,26.43091 M81.32591,26.19448l0.4982,0.23643    c0.06488-0.05503,0.12985-0.11014,0.19473-0.16517L81.32591,26.19448 M72.49873,22.39941    c0.58917,1.46644,1.17887,2.93295,1.76853,4.39939c0.05899,0.02966,0.11805,0.05935,0.17703,0.089l2.06921-1.63354    c2.00907,0.1894,4.01865,0.37904,6.02769,0.56845l0,0c-0.17417,0.14772-0.34819,0.29531-0.52235,0.44303l0.26938,0.0277    l5.14363,0.52893c-1.2127-1.31764-2.42511-2.63494-3.63779-3.95259l-11.26739-0.46921L72.49873,22.39941 M64.88525,22.08236    c2.80154,1.40827,5.60259,2.81639,8.40392,4.22472c-2.29874-1.38736-4.5977-2.77481-6.89643-4.16194L64.88525,22.08236     M76.8549,15.3651l-0.82728,0.4089l2.34627,2.57493l0.70074-0.60709c-0.71989-0.7822-1.44032-1.565-2.16018-2.34721    L76.8549,15.3651"/><path class="st12" d="M16.21889,36.15538L10.382,38.20914l-1.9573,0.68877c0.88772,0.34866,1.77593,0.69732,2.66365,1.04598    c1.09406,0.54455,2.18798,1.08906,3.28198,1.63361C14.98641,39.77043,15.6028,37.96247,16.21889,36.15538 M6.01831,34.63126    c-0.01834,0.01994-0.03653,0.03969-0.05488,0.05963l0.04324,0.03443L6.01831,34.63126"/><path class="st10" d="M23.04554,16.13062c-3.33214,3.6203-6.66393,7.24084-9.99616,10.8614    c-2.34372,2.54641-4.68736,5.09272-7.03107,7.63923l-0.01164,0.09406l1.30522,1.0392l12.96267-12.57508l0.31852,0.13536    C21.41057,20.92678,22.22811,18.5286,23.04554,16.13062"/><path class="st13" d="M20.27455,23.18943L7.31188,35.76451L6.93661,36.1285l1.48808,2.76941l0,0l1.9573-0.68877l5.83689-2.05376    c1.45816-4.27705,2.91611-8.55353,4.37419-12.83059L20.27455,23.18943"/><path class="st13" d="M5.96343,34.69088c-0.54203,0.58893-1.08423,1.17806-1.62627,1.76701l0.92665,1.10087    c3.01371,1.40374,6.02738,2.8075,9.04085,4.21131c0.02193-0.06433,0.04372-0.12825,0.06566-0.19257    c-1.09399-0.54455-2.18792-1.08906-3.28198-1.63361c-0.88772-0.34866-1.77593-0.69732-2.66365-1.04598l0,0L6.93661,36.1285    l0.37527-0.36399l-1.30522-1.0392L5.96343,34.69088"/><path class="st14" d="M45.93914,83.27572c-0.00288,0.00804-0.00589,0.01647-0.00877,0.02451    c0.04986,0.09634,0.09953,0.19234,0.1494,0.28871c0.07584,0.14658,0.15168,0.29321,0.22745,0.43974    c0.00417-0.00383,0.00796-0.00732,0.01213-0.01115c-0.05121-0.10001-0.10239-0.19992-0.15365-0.29995    C46.09035,83.57057,46.01451,83.42264,45.93914,83.27572 M44.23689,80.03774c0.15223,0.29242,0.30397,0.58415,0.45612,0.87685    l0.01418-0.03347c-0.05241-0.10158-0.10427-0.20205-0.1567-0.30359C44.44595,80.3976,44.34143,80.21768,44.23689,80.03774     M59.13915,75.19534l-0.06423,0.00085c-0.42027,0.78746-0.83997,1.57384-1.26024,2.36131    c0.23793-0.40601,0.47587-0.81203,0.71384-1.21805C58.73176,75.95865,58.93591,75.57613,59.13915,75.19534 M64.82696,64.41879    c-0.0001,0.00017-0.00011,0.00019-0.0002,0.00035c-1.24276,2.3285-2.48495,4.65594-3.72769,6.98444l0.18688-0.2306    c1.1866-2.22326,2.37358-4.44725,3.56018-6.67051C64.83972,64.47448,64.83337,64.44679,64.82696,64.41879 M29.59288,52.57355    l-0.00267,0.00217c1.0257,1.87772,2.05025,3.76254,3.07264,5.65272c0.0054-0.00922,0.01098-0.01876,0.01637-0.02797    C31.65258,56.31617,30.62403,54.44102,29.59288,52.57355 M72.5909,49.8721c-0.23799,0.4459-0.47636,0.89251-0.71435,1.33841    l0.08714-0.04391c0.22275-0.41736,0.44678-0.83713,0.66953-1.25449L72.5909,49.8721"/><path class="st14" d="M61.28595,71.17299l-0.18688,0.2306c-0.67444,1.26369-1.3497,2.52892-2.02414,3.7926l0.06423-0.00085    C59.85501,73.85406,60.57008,72.51427,61.28595,71.17299 M29.23959,51.9342c0.11692,0.2138,0.23374,0.42756,0.35062,0.64152    l0.00267-0.00217C29.47523,52.36049,29.35729,52.14705,29.23959,51.9342"/><path class="st4" d="M44.55049,80.57754c0.05243,0.10154,0.10428,0.20201,0.1567,0.30359l0.0083-0.01958    C44.66051,80.76691,44.60546,80.67217,44.55049,80.57754 M43.22316,73.87022l-0.78167,1.28703    C42.7021,74.72827,42.96272,74.29935,43.22316,73.87022 M49.31443,73.78973c0.00074,0.02017,0.00149,0.04024,0.00224,0.06042l0,0    l0,0c-1.12602,3.14177-2.25196,6.28378-3.37753,9.42557c0.07537,0.14692,0.15121,0.29485,0.22655,0.44186    c0.05126,0.10003,0.10244,0.19994,0.15365,0.29995c2.83681-2.61005,5.67376-5.22026,8.51055-7.8308    C52.99152,75.38782,51.1529,74.58875,49.31443,73.78973 M42.28323,65.97193c0.05079,0.07024,0.10199,0.14068,0.15359,0.21128    c-0.03862-0.06989-0.07738-0.14004-0.116-0.20992C42.30826,65.97284,42.29579,65.97239,42.28323,65.97193 M72.59079,49.87199    c-0.23821,0.4462-0.4763,0.89239-0.71439,1.33858l0.00014-0.00006c0.23799-0.4459,0.47636-0.89251,0.71435-1.33841    L72.59079,49.87199 M71.51475,48.85477l-4.7697,2.16806C68.33511,50.30014,69.92517,49.57745,71.51475,48.85477    c0.11665,0.11028,0.23331,0.22056,0.34996,0.33083L71.51475,48.85477 M46.43849,48.81808    c-2.79655,6.16163-5.59299,12.32325-8.38954,18.48487c1.3232-0.62558,2.64645-1.25117,3.96958-1.87672    c-0.00008-0.00014-0.00008-0.00014-0.00008-0.00014c1.60917-0.76061,3.21833-1.52151,4.82746-2.28213    C46.71029,58.36852,46.57411,53.59328,46.43849,48.81808 M46.81026,47.90936c2.67354,9.42583,5.34657,18.85155,8.01963,28.27738    c0.92842,0.57073,1.85632,1.14146,2.78474,1.71215c0.06668-0.11377,0.13338-0.22761,0.20005-0.34139    c0.42027-0.78746,0.83997-1.57384,1.26024-2.36131c0.67444-1.26369,1.3497-2.52892,2.02414-3.7926    c1.24274-2.3285,2.48494-4.65594,3.72769-6.98444c-1.52467,2.67605-3.04942,5.35225-4.57409,8.02882    c-3.51197-8.1782-7.02408-16.35636-10.5361-24.53455C48.74815,47.91206,47.77868,47.91071,46.81026,47.90936 M27.23173,47.88194    l-0.02159,0.05737c-0.01937,0.05146-0.05346,0.09307-0.09568,0.12185c0.70929,1.28834,1.41737,2.57879,2.12513,3.87304    c0.1177,0.21284,0.23564,0.42629,0.35329,0.63935c1.03115,1.86747,2.0597,3.74261,3.08634,5.62691    c2.00998-3.4343,4.01943-6.86836,6.02942-10.30244C34.88338,47.89268,31.05698,47.88731,27.23173,47.88194"/><path class="st15" d="M56.2828,52.06856L56.2828,52.06856l1.94474-1.82646l2.49336,1.66668l0,0    c-1.4725,3.59408-2.94448,7.18844-4.4165,10.78252C56.29685,59.15049,56.28983,55.60938,56.2828,52.06856L56.2828,52.06856     M49.71657,47.91341c3.51202,8.1782,7.02413,16.35635,10.5361,24.53455c1.52467-2.67657,3.04942-5.35278,4.57409-8.02882    c0.00009-0.00016,0.0001-0.00018,0.0002-0.00035c0.00642,0.028,0.01276,0.05569,0.01917,0.08369    c0.73538-1.37784,1.47094-2.75602,2.20631-4.13386c-0.02072-0.00103-0.04148-0.00207-0.06221-0.0031    c0.77638-1.45439,1.5524-2.90873,2.32867-4.36295c-2.79469-2.61061-5.58934-5.2212-8.38448-7.8318    c-1.13367-0.08215-2.26764-0.16429-3.4014-0.24644C54.92779,47.92069,52.32182,47.91705,49.71657,47.91341"/><path class="st16" d="M38.70864,47.89803c-2.00999,3.43407-4.01944,6.86813-6.02942,10.30244    c-0.00539,0.00921-0.01097,0.01875-0.01637,0.02797c1.66256,3.07369,3.32013,6.1629,4.9735,9.26958    c0.13766-0.06509,0.27494-0.12999,0.4126-0.19507c2.79655-6.16162,5.59299-12.32324,8.38954-18.48487    c0.13562,4.7752,0.2718,9.55044,0.40742,14.32587l0,0c0.73802,1.25674,1.47551,2.51347,2.21305,3.7702    c0.08514,2.2918,0.17033,4.58372,0.25547,6.87557c1.83847,0.79902,3.67709,1.59808,5.51546,2.397    c-2.83679,2.61053-5.67374,5.22074-8.51055,7.8308c-0.00417,0.00384-0.00796,0.00732-0.01213,0.01115    c1.01587,1.96478,2.02493,3.92709,3.02771,5.88741l0.2326,0.27634l1.8065-0.44776c2.38504-4.46888,4.7694-8.93638,7.1545-13.40522    c-0.23797,0.40602-0.47591,0.81203-0.71384,1.21805c-0.06668,0.11378-0.13338,0.22762-0.20005,0.34139    c-0.92842-0.57069-1.85632-1.14142-2.78474-1.71215c-2.67306-9.42583-5.34609-18.85155-8.01963-28.27738    C44.10912,47.90558,41.40977,47.90181,38.70864,47.89803"/><path class="st14" d="M51.37402,89.74467l-1.8065,0.44776l0.7509,0.89208l0.93049-1.10542    C51.29079,89.90061,51.33213,89.82314,51.37402,89.74467"/><path class="st14" d="M42.01853,65.42623c-1.32314,0.62555-2.64638,1.25114-3.96958,1.87672    c-0.13766,0.06508-0.27494,0.12998-0.4126,0.19507c1.47009,2.76231,2.93701,5.53873,4.39944,8.32719    c0.13521-0.22267,0.27047-0.44536,0.40571-0.66798l0.78167-1.28703l0,0l4.02366,1.01785l0,0    c-0.41396,2.731-0.82792,5.46149-1.2424,8.19196c-0.42973-0.73956-0.85928-1.47891-1.28894-2.21848l-0.0083,0.01958    L44.693,80.91458c0.41261,0.79385,0.82539,1.58968,1.23735,2.38564c0.00288-0.00804,0.00589-0.01647,0.00877-0.02451    c1.12557-3.14179,2.25151-6.2838,3.37753-9.42557l0,0c-0.68977,0.34613-1.37954,0.69231-2.06984,1.03791    c-1.60333-2.90162-3.20668-5.80323-4.81001-8.70485c-0.0516-0.0706-0.1028-0.14104-0.15359-0.21128    c0.01256,0.00046,0.02503,0.00091,0.03759,0.00136c-0.10084-0.18249-0.20153-0.36472-0.30237-0.5472"/><path class="st15" d="M43.22316,73.87022L43.22316,73.87022c-0.26044,0.42913-0.52106,0.85806-0.78167,1.28703    c-0.13524,0.22262-0.2705,0.4453-0.40571,0.66798c0.73469,1.40084,1.46842,2.80507,2.20111,4.21252    c0.10454,0.17994,0.20906,0.35986,0.31359,0.53979c0.05498,0.09464,0.11002,0.18938,0.16499,0.284    c0.42966,0.73957,0.85922,1.47893,1.28894,2.21848c0.41448-2.73048,0.82844-5.46096,1.2424-8.19196l0,0l0,0L43.22316,73.87022"/><path class="st16" d="M69.3189,56.00257c-0.77627,1.45422-1.55228,2.90856-2.32867,4.36295    c0.02073,0.00103,0.04149,0.00207,0.06221,0.0031c0.76965-1.44204,1.53938-2.88425,2.30901-4.3263    C69.34731,56.02911,69.33305,56.01578,69.3189,56.00257"/><path class="st15" d="M71.51475,48.85477c-1.58958,0.72269-3.17964,1.44537-4.7697,2.16806l2.68529,1.42025l2.44607-1.23249    c0.23809-0.44619,0.47617-0.89238,0.71439-1.33858l-0.72608-0.6864C71.74806,49.07533,71.63139,48.96504,71.51475,48.85477"/><path class="st14" d="M58.22754,50.2421l-1.94474,1.82646l0,0l0,0c0.00703,3.54082,0.01405,7.08192,0.0216,10.62275    c1.47202-3.59408,2.944-7.18844,4.4165-10.78252l0,0l0,0L58.22754,50.2421"/><path class="st15" d="M46.84591,63.14396L46.84591,63.14396c-1.60913,0.76062-3.21829,1.52151-4.82746,2.28213l0,0    c0.10084,0.18249,0.20153,0.36472,0.30237,0.5472c0.03861,0.06989,0.07738,0.14004,0.116,0.20992    c1.60333,2.90162,3.20668,5.80323,4.81001,8.70485c0.6903-0.3456,1.38007-0.69178,2.06984-1.03791l0,0    c-0.00075-0.02018-0.0015-0.04025-0.00224-0.06042c-0.08514-2.29185-0.17033-4.58377-0.25547-6.87557    C48.32142,65.65742,47.58393,64.4007,46.84591,63.14396"/><path class="st14" d="M57.53302,47.92433c1.13377,0.08215,2.26773,0.16429,3.4014,0.24644    c2.79514,2.6106,5.58978,5.22118,8.38448,7.8318c0.01414,0.01321,0.02841,0.02654,0.04256,0.03975    c0.86769-1.62575,1.73457-3.24998,2.60223-4.87573l-0.08714,0.04391l-0.00014,0.00006l-2.44607,1.23249l-2.68529-1.42025    l4.7697-2.16806l0.34996,0.33083l0.72608,0.6864l0.00011,0.0001l0.04233,0.04c0.31174-0.58413,0.62219-1.16579,0.93394-1.74992    c-0.07667-0.0213-0.1424-0.07774-0.17234-0.15798l-0.02152-0.05771C68.09257,47.93909,62.81376,47.93171,57.53302,47.92433"/><path class="st17" d="M3.53736,36.47255L26.85476,48.079l0.11425,0.02695l46.66644,0.06556l0.11434-0.02663l23.34955-11.54114    c0.12734-0.06294,0.17956-0.21721,0.11662-0.34456c-0.06294-0.12735-0.21721-0.17957-0.34455-0.11663L73.5759,47.65698    l-46.54588-0.06539L3.7666,36.012c-0.12718-0.0633-0.28159-0.01152-0.34489,0.11566    C3.35841,36.25484,3.41019,36.40925,3.53736,36.47255L3.53736,36.47255z"/><path class="st17" d="M23.32447,15.03359l13.44542,6.69281l0.1143,0.02697l26.90946,0.03769l0.11435-0.02665l13.46452-6.65516    c0.12736-0.06293,0.17957-0.21718,0.1166-0.34457c-0.06293-0.12735-0.21717-0.17957-0.34453-0.11659l-13.4105,6.62843    L36.9452,21.23899l-13.39148-6.66596c-0.12719-0.06329-0.28159-0.01152-0.34492,0.11563    C23.1455,14.81586,23.19728,14.97026,23.32447,15.03359"/><polyline class="st4" points="36.88456,21.49614 26.96937,47.84872 36.88456,21.49614   "/><path class="st17" d="M36.64379,21.40556l-9.91516,26.35258c-0.05001,0.13297,0.01722,0.28131,0.15015,0.33132    c0.13297,0.05005,0.28131-0.01718,0.33136-0.15015l9.91516-26.35258c0.05-0.13297-0.01722-0.28131-0.15019-0.33132    C36.84217,21.20536,36.69383,21.27258,36.64379,21.40556"/><path class="st17" d="M63.55301,21.62373l9.84182,26.38047c0.04964,0.13309,0.19778,0.20072,0.33092,0.15107    c0.1331-0.04965,0.20072-0.19779,0.15108-0.33092l-9.84178-26.38043c-0.04969-0.13313-0.19783-0.20076-0.33093-0.15111    C63.57103,21.34246,63.50336,21.49064,63.55301,21.62373"/><path class="st17" d="M26.743,47.97086c7.83476,14.52132,15.67002,29.04287,23.50479,43.56394    c0.06744,0.12503,0.22348,0.17169,0.34851,0.10425c0.12503-0.06745,0.17169-0.2235,0.10425-0.34852    c-7.83477-14.52107-15.67004-29.04264-23.5048-43.56395c-0.06746-0.12502-0.22349-0.17169-0.34852-0.10423    C26.72222,47.68981,26.67555,47.84584,26.743,47.97086L26.743,47.97086z"/><path class="st17" d="M73.40918,47.79267C65.65981,62.23486,57.91096,76.67704,50.1616,91.11974    c-0.06717,0.12518-0.02014,0.28111,0.10505,0.34828c0.12518,0.06716,0.28111,0.02013,0.34828-0.10505    c7.74935-14.4427,15.4982-28.88489,23.24754-43.32707c0.06717-0.12517,0.02015-0.28109-0.10503-0.34826    c-0.12518-0.06717-0.28109-0.02015-0.34825,0.10502L73.40918,47.79267z"/><path class="st18" d="M72.42585,13.16819l-9.33822,7.44038c-0.11035,0.14632-0.22079,0.29277-0.33115,0.4391l0.04342,0.22754    l0.9342,0.00131l11.93302-5.89816l-1.00163-1.09925L72.42585,13.16819 M50.33162,8.81659h-3.63898    c0.03485,1.61968,0.06969,3.23925,0.10455,4.85884c-3.21151-1.61973-6.42241-3.23916-9.6338-4.85884H36.9845l-2.44555,1.21305    l2.33004,3.41521c-2.97163,1.10624-5.94266,2.21243-8.91426,3.31889l8.99048,4.47525L54.08473,21.263    c-2.42902-2.52908-4.85855-5.0585-7.28754-7.58757C47.97556,12.05585,49.15364,10.43618,50.33162,8.81659"/><path class="st19" d="M63.08763,20.60858l-0.36017,0.28697l0.02903,0.15212C62.86684,20.90135,62.97728,20.7549,63.08763,20.60858     M63.65286,8.81659H50.33162c-1.17799,1.61959-2.35606,3.23925-3.53444,4.85884c2.42899,2.52906,4.85852,5.05848,7.28754,7.58757    l7.51344,0.01052l5.30565-5.72519l3.25031-3.50696L63.65286,8.81659"/><path class="st20" d="M46.69264,8.81659h-9.52926c3.2114,1.61968,6.42229,3.23911,9.6338,4.85884    C46.76233,12.05584,46.72749,10.43627,46.69264,8.81659"/><path class="st19" d="M34.53895,10.02964L24.46491,15.0266l3.48982,1.73715c2.9716-1.10646,5.94262-2.21265,8.91426-3.31889    L34.53895,10.02964"/><path class="st21" d="M74.6655,14.27911l1.00163,1.09925l0.60833-0.30068L74.6655,14.27911 M70.15414,12.04138l-3.25031,3.50696    l-5.30565,5.72519l1.20173,0.00168l-0.04342-0.22754l-0.02903-0.15212l0.36017-0.28697l9.33822-7.44038L70.15414,12.04138"/><path class="st17" d="M24.46491,15.0266l-0.35168,0.17444c4.18014,2.06035,8.36043,4.12079,12.54058,6.18135    c0.04395-0.0894,0.13476-0.14355,0.23075-0.14355c0.0301,0,0.06072,0.00533,0.09055,0.01656    c0.10288,0.03869,0.1664,0.13625,0.16672,0.24c8.80754-0.02513,17.61457-0.0503,26.42165-0.07566    c0.028-0.05663,0.07679-0.10312,0.14064-0.12693c0.02964-0.01105,0.06-0.01629,0.08987-0.01629    c0.06337,0,0.12446,0.0236,0.17131,0.06533c4.16399-2.058,8.32777-4.11611,12.49169-6.17411l-0.18153-0.09005l-0.60833,0.30068    L63.7341,21.27652l-0.9342-0.00131l-1.20173-0.00168L54.08473,21.263L36.9452,21.23899l-8.99048-4.47525L24.46491,15.0266"/><path class="st17" d="M36.88456,21.23885c-0.09599,0-0.1868,0.05415-0.23075,0.14355    c0.07695,0.03793,0.1538,0.07581,0.23075,0.11375c0.086-0.00024,0.17127-0.00049,0.25727-0.00073    c-0.00032-0.10375-0.06384-0.20131-0.16672-0.24C36.94527,21.24417,36.91465,21.23885,36.88456,21.23885"/><path class="st17" d="M63.79399,21.27652c-0.02988,0-0.06024,0.00524-0.08987,0.01629    c-0.06384,0.02382-0.11264,0.07031-0.14064,0.12693c0.08162-0.00023,0.16402-0.00047,0.24564-0.00071    c0.05206-0.02573,0.10414-0.05147,0.15618-0.07719C63.91845,21.30012,63.85735,21.27652,63.79399,21.27652"/><path class="st22" d="M96.98539,36.44272l0.37852-0.34838C90.7781,28.9388,84.19225,21.78327,77.60696,14.62773    c-0.04138-0.04495-0.09525-0.08533-0.14995-0.11246L64.00201,7.84125c-0.07012-0.03476-0.15031-0.05358-0.22858-0.05358h-26.9095    c-0.07827,0-0.15846,0.01882-0.22857,0.05358l-13.45502,6.67403c-0.05474,0.02713-0.10852,0.06751-0.1499,0.11246    c-3.57956,3.889-7.15859,7.77828-10.7381,11.66748c-3.00629,3.26629-6.01259,6.53259-9.01888,9.79912    c-0.17559,0.19077-0.18201,0.48131-0.01505,0.67966l46.66644,55.4407c0.09826,0.11672,0.24102,0.18314,0.39358,0.18314    c0.1526,0,0.29532-0.06641,0.39357-0.18314l46.66696-55.44069c0.16696-0.19831,0.16051-0.4889-0.01505-0.67966L96.98539,36.44272    l-0.39358-0.33128L50.31842,91.08451L4.04555,36.11144l-0.39357,0.33128L4.0305,36.7911    c3.00629-3.26654,6.01258-6.53279,9.01888-9.79908c3.57955-3.88928,7.15859-7.77852,10.7381-11.66748l-0.37852-0.34842    l0.22857,0.46088l13.34696-6.6204h26.66837l13.34697,6.6204l0.22858-0.46088l-0.37852,0.34838    c6.58532,7.15553,13.17113,14.31107,19.75698,21.46661L96.98539,36.44272l-0.39358-0.33128L96.98539,36.44272"/><path class="st23" d="M73.28917,26.30708c0.34353,0.20732,0.68691,0.41457,1.03043,0.62189    c-0.01746-0.0434-0.03488-0.08676-0.05235-0.13016C73.94131,26.63493,73.61513,26.47095,73.28917,26.30708"/><path class="st24" d="M66.29091,22.08369c0.03397,0.0205,0.06786,0.04095,0.10183,0.06145l6.10599,0.25427    c-0.0078-0.01941-0.01561-0.03883-0.02341-0.05825C70.41351,22.25523,68.3522,22.16934,66.29091,22.08369"/><path class="st25" d="M66.39274,22.14514c2.29873,1.38713,4.59769,2.77459,6.89643,4.16194    c0.32596,0.16387,0.65214,0.32785,0.97809,0.49172c-0.58966-1.46644-1.17936-2.93295-1.76853-4.39939L66.39274,22.14514"/><polygon class="st17" points="72.48687,30.73081 73.97947,31.31961 72.48687,31.90841 71.89807,33.40101 71.30927,31.90841     69.81667,31.31961 71.30927,30.73081 71.89807,29.23796   "/><polygon class="st17" points="58.96255,40.76252 60.45515,41.35132 58.96255,41.94012 58.37375,43.43272 57.78495,41.94012     56.29235,41.35132 57.78495,40.76252 58.37375,39.26967   "/><polygon class="st17" points="59.36848,61.59762 60.86108,62.18642 59.36848,62.77522 58.77968,64.26781 58.19088,62.77522     56.69828,62.18642 58.19088,61.59762 58.77968,60.10477   "/><polygon class="st17" points="22.60814,28.54441 24.10124,29.13321 22.60814,29.72201 22.01984,31.21461 21.43104,29.72201     19.93794,29.13321 21.43104,28.54441 22.01984,27.05156   "/><polygon class="st17" points="38.52434,54.19164 40.70622,55.05199 38.52434,55.91233 37.66425,58.09395 36.80366,55.91233     34.62178,55.05199 36.80366,54.19164 37.66425,52.01002   "/><polygon class="st17" points="42.08076,30.5291 46.32243,32.20206 42.08076,33.87476 40.4078,38.11644 38.73484,33.87476     34.49317,32.20206 38.73484,30.5291 40.4078,26.28768   "/></g></g></svg>